<?xml version="1.0" standalone="no"?>
<!DOCTYPE svg PUBLIC "-//W3C//DTD SVG 1.1//EN" "http://www.w3.org/Graphics/SVG/1.1/DTD/svg11.dtd" >
<svg xmlns="http://www.w3.org/2000/svg">
<metadata>Generated by IcoMoon</metadata>
<defs>
<font id="iconsFont" horiz-adv-x="1024">
<font-face units-per-em="1024" ascent="960" descent="-64" />
<missing-glyph horiz-adv-x="1024" />
<glyph unicode="&#x20;" horiz-adv-x="512" d="" />
<glyph unicode="&#xe91a;" glyph-name="user_filled" horiz-adv-x="1067" d="M192 21.333c0 188.514 152.82 341.333 341.333 341.333s341.333-152.819 341.333-341.333h-682.667zM533.333 405.333c-141.44 0-256 114.56-256 256s114.56 256 256 256c141.44 0 256-114.56 256-256s-114.56-256-256-256z" />
<glyph unicode="&#xe91b;" glyph-name="user_unfilled" horiz-adv-x="1067" d="M874.667 21.333h-85.333v85.333c0 70.694-57.306 128-128 128h-256c-70.692 0-128-57.306-128-128v-85.333h-85.333v85.333c0 117.82 95.513 213.333 213.333 213.333h256c117.82 0 213.333-95.514 213.333-213.333v-85.333zM533.333 405.333c-141.385 0-256 114.615-256 256s114.615 256 256 256c141.385 0 256-114.615 256-256s-114.615-256-256-256zM533.333 490.667c94.255 0 170.667 76.41 170.667 170.667s-76.412 170.667-170.667 170.667c-94.255 0-170.667-76.41-170.667-170.667s76.412-170.667 170.667-170.667z" />
<glyph unicode="&#xe91c;" glyph-name="favorite_filled" horiz-adv-x="1067" d="M533.376 766.783c100.224 89.964 255.104 86.977 351.642-9.763 96.542-96.741 99.857-250.865 10.069-351.387l-361.758-362.325-361.75 362.325c-89.785 100.523-86.429 254.89 10.068 351.387 96.606 96.606 251.215 99.861 351.729 9.763z" />
<glyph unicode="&#xe91d;" glyph-name="favorite_unfilled" horiz-adv-x="1067" d="M533.376 766.783c100.224 89.964 255.104 86.977 351.642-9.763 96.542-96.741 99.857-250.865 10.069-351.387l-361.758-362.325-361.75 362.325c-89.785 100.523-86.429 254.89 10.068 351.387 96.606 96.606 251.215 99.861 351.729 9.763zM824.619 696.742c-63.962 64.092-167.228 66.692-234.24 6.538l-56.964-51.13-56.994 51.090c-67.205 60.239-170.284 57.588-234.433-6.56-63.562-63.562-66.753-165.364-8.177-232.603l299.519-299.994 299.529 299.994c58.598 67.264 55.42 168.873-8.239 232.666z" />
<glyph unicode="&#xe91e;" glyph-name="notification_unfilled" d="M512-64.013c33.946 0 66.505 13.483 90.509 37.487 24.004 24.009 37.491 56.563 37.491 90.513h-256c0-33.95 13.486-66.505 37.49-90.513 24.005-24.004 56.564-37.487 90.51-37.487zM512 837.233l-51.008-10.304c-57.859-11.789-109.867-43.206-147.222-88.936s-57.763-102.961-57.77-162.008c0-40.192-8.576-140.606-29.376-239.486-10.24-49.088-24.064-100.224-42.432-144.512h655.616c-18.368 44.288-32.128 95.36-42.432 144.512-20.8 98.88-29.376 199.294-29.376 239.486-0.021 59.037-20.437 116.253-57.792 161.969-37.35 45.716-89.353 77.125-147.2 88.911l-51.008 10.368zM910.080 191.987c14.272-28.608 30.784-51.264 49.92-64h-896c19.136 12.736 35.648 35.392 49.92 64 57.6 115.2 78.080 327.68 78.080 383.998 0 154.88 110.080 284.16 256.32 313.664-0.892 8.899 0.090 17.887 2.884 26.383 2.79 8.496 7.334 16.313 13.333 22.945 6.003 6.632 13.325 11.934 21.5 15.562s17.020 5.503 25.963 5.503c8.943 0 17.788-1.875 25.963-5.503s15.497-8.929 21.5-15.562c5.999-6.632 10.543-14.449 13.333-22.945 2.795-8.496 3.776-17.484 2.884-26.383 72.337-14.714 137.37-53.975 184.081-111.136 46.707-57.161 72.23-128.709 72.239-202.528 0-56.318 20.48-268.798 78.080-383.998z" />
<glyph unicode="&#xe91f;" glyph-name="notification_filled" d="M853.333 163.554l17.067-22.754c7.070-9.425 5.158-22.797-4.267-29.867-3.691-2.769-8.183-4.267-12.8-4.267h-682.667c-11.782 0-21.333 9.553-21.333 21.333 0 4.617 1.497 9.109 4.267 12.8l17.067 22.754v369.779c0 188.513 152.82 341.333 341.333 341.333s341.333-152.82 341.333-341.333v-369.779zM405.333 64h213.333c0-58.91-47.757-106.667-106.667-106.667s-106.667 47.757-106.667 106.667z" />
<glyph unicode="&#xe920;" d="M512-64.013c33.946 0 66.505 13.483 90.509 37.487 24.004 24.009 37.491 56.563 37.491 90.513h-256c0-33.95 13.486-66.505 37.49-90.513 24.005-24.004 56.564-37.487 90.51-37.487zM512 837.233l-51.008-10.304c-57.859-11.789-109.867-43.206-147.222-88.936s-57.763-102.961-57.77-162.008c0-40.192-8.576-140.606-29.376-239.486-10.24-49.088-24.064-100.224-42.432-144.512h655.616c-18.368 44.288-32.128 95.36-42.432 144.512-20.8 98.88-29.376 199.294-29.376 239.486-0.021 59.037-20.437 116.253-57.792 161.969-37.35 45.716-89.353 77.125-147.2 88.911l-51.008 10.368zM910.080 191.987c14.272-28.608 30.784-51.264 49.92-64h-896c19.136 12.736 35.648 35.392 49.92 64 57.6 115.2 78.080 327.68 78.080 383.998 0 154.88 110.080 284.16 256.32 313.664-0.892 8.899 0.090 17.887 2.884 26.383 2.79 8.496 7.334 16.313 13.333 22.945 6.003 6.632 13.325 11.934 21.5 15.562s17.020 5.503 25.963 5.503c8.943 0 17.788-1.875 25.963-5.503s15.497-8.929 21.5-15.562c5.999-6.632 10.543-14.449 13.333-22.945 2.795-8.496 3.776-17.484 2.884-26.383 72.337-14.714 137.37-53.975 184.081-111.136 46.707-57.161 72.23-128.709 72.239-202.528 0-56.318 20.48-268.798 78.080-383.998z" />
<glyph unicode="&#xe921;" d="M938.667 704c0-117.821-95.513-213.333-213.333-213.333s-213.333 95.513-213.333 213.333c0 117.821 95.513 213.333 213.333 213.333s213.333-95.513 213.333-213.333z" />
<glyph unicode="&#xe922;" glyph-name="setting_filled" d="M370.66 789.33l111.217 111.215c16.661 16.663 43.674 16.663 60.339 0l111.215-111.215h157.282c23.561 0 42.667-19.103 42.667-42.667v-157.282l111.215-111.216c16.661-16.661 16.661-43.678 0-60.339l-111.215-111.215v-157.282c0-23.565-19.106-42.667-42.667-42.667h-157.282l-111.215-111.215c-16.666-16.661-43.678-16.661-60.339 0l-111.217 111.215h-157.282c-23.564 0-42.667 19.102-42.667 42.667v157.282l-111.215 111.215c-16.663 16.661-16.663 43.678 0 60.339l111.215 111.216v157.282c0 23.564 19.102 42.667 42.667 42.667h157.282zM512.047 319.996c70.69 0 128 57.31 128 128 0 70.694-57.31 128.001-128 128.001-70.694 0-128.002-57.306-128.002-128.001 0-70.69 57.307-128 128.002-128z" />
<glyph unicode="&#xe923;" glyph-name="setting_unfilled" d="M356.426 823.417l122.339 122.337c18.328 18.329 48.042 18.329 66.372 0l122.337-122.337h173.010c25.917 0 46.935-21.013 46.935-46.934v-173.009l122.337-122.338c18.324-18.328 18.324-48.046 0-66.375l-122.337-122.332v-173.015c0-25.917-21.018-46.93-46.935-46.93h-173.010l-122.337-122.337c-18.33-18.33-48.044-18.33-66.372 0l-122.339 122.337h-173.010c-25.921 0-46.933 21.012-46.933 46.93v173.015l-122.337 122.332c-18.329 18.33-18.329 48.048 0 66.375l122.337 122.338v173.009c0 25.921 21.012 46.934 46.933 46.934h173.010zM230.35 729.55v-164.958l-116.642-116.644 116.642-116.644v-164.956h164.958l116.644-116.644 116.641 116.644h164.961v164.956l116.639 116.644-116.639 116.644v164.958h-164.961l-116.641 116.642-116.644-116.642h-164.958zM511.951 260.214c-103.684 0-187.735 84.055-187.735 187.735 0 103.684 84.051 187.735 187.735 187.735s187.732-84.051 187.732-187.735c0-103.68-84.050-187.735-187.732-187.735zM511.951 354.084c51.837 0 93.868 42.025 93.868 93.865 0 51.843-42.030 93.867-93.868 93.867-51.842 0-93.866-42.024-93.866-93.867 0-51.84 42.024-93.865 93.866-93.865z" />
<glyph unicode="&#xe924;" glyph-name="exit" d="M213.333 21.333c-23.564 0-42.667 19.102-42.667 42.667v768c0 23.564 19.103 42.667 42.667 42.667h597.333c23.565 0 42.667-19.103 42.667-42.667v-128h-85.333v85.333h-512v-682.667h512v85.333h85.333v-128c0-23.565-19.102-42.667-42.667-42.667h-597.333zM768 277.333v128h-298.667v85.333h298.667v128l213.333-170.667-213.333-170.667z" />
<glyph unicode="&#xe925;" glyph-name="home" horiz-adv-x="1126" d="M921.6-64h-716.8c-28.277 0-51.2 23.332-51.2 52.116v469.042h-153.6l528.758 489.288c19.528 18.071 49.357 18.071 68.884 0l528.758-489.288h-153.6v-469.042c0-28.785-22.922-52.116-51.2-52.116zM256 40.233h614.4v512.95l-307.2 284.269-307.2-284.269v-512.95zM358.4 248.694h409.6v-104.228h-409.6v104.228z" />
<glyph unicode="&#xe926;" glyph-name="menu" horiz-adv-x="1067" d="M149.333 789.333h768v-85.333h-768v85.333zM149.333 490.667h768v-85.333h-768v85.333zM149.333 192h768v-85.333h-768v85.333z" />
<glyph unicode="&#xe927;" glyph-name="menu_search" d="M661.332 746.667c-82.474 0-149.332-66.859-149.332-149.334s66.858-149.333 149.332-149.333c82.479 0 149.336 66.859 149.336 149.333s-66.858 149.334-149.336 149.334zM426.667 597.333c0 129.603 105.064 234.667 234.665 234.667 129.606 0 234.668-105.064 234.668-234.667 0-49.387-15.258-95.211-41.314-133.014l114.148-114.148-60.337-60.342-114.153 114.153c-37.8-26.056-83.624-41.314-133.013-41.314-129.601 0-234.665 105.062-234.665 234.665zM128 789.333h213.333v-85.333h-213.333v85.333zM128 490.668h213.333v-85.336h-213.333v85.336zM896 192v-85.332h-768v85.332h768z" />
<glyph unicode="&#xe928;" horiz-adv-x="1138" d="M162.54 960h812.699c89.768 0 162.54-72.771 162.54-162.54v-698.921c0-89.768-72.771-162.54-162.54-162.54h-812.699c-89.768 0-162.54 72.771-162.54 162.54v698.921c0 89.768 72.771 162.54 162.54 162.54z" />
<glyph unicode="&#xe929;" horiz-adv-x="1138" d="M458.628 829.984v-231.167h-231.168l0.001 231.168 231.167-0.001zM227.461 895c-35.908 0-65.016-29.108-65.016-65.015v-231.168c0-35.907 29.108-65.015 65.015-65.015h231.168c35.907 0 65.016 29.108 65.016 65.015v231.167c0 35.908-29.109 65.016-65.016 65.016h-231.167z" />
<glyph unicode="&#xe92a;" horiz-adv-x="1138" d="M910.182 829.984v-231.167h-231.168v231.168l231.168-0.001zM679.014 895c-35.908 0-65.013-29.108-65.013-65.015v-231.168c0-35.907 29.104-65.015 65.013-65.015h231.168c35.908 0 65.018 29.108 65.018 65.015v231.167c0 35.908-29.11 65.016-65.018 65.016h-231.168z" />
<glyph unicode="&#xe92b;" horiz-adv-x="1138" d="M910.182 378.431v-231.168h-231.168v231.168h231.168zM679.014 443.444c-35.908 0-65.013-29.108-65.013-65.014v-231.168c0-35.908 29.104-65.018 65.013-65.018h231.168c35.908 0 65.018 29.11 65.018 65.018v231.168c0 35.905-29.11 65.014-65.018 65.014h-231.168z" />
<glyph unicode="&#xe92c;" horiz-adv-x="1138" d="M458.628 378.431v-231.168h-231.168l0.001 231.168h231.167zM227.461 443.444c-35.908 0-65.016-29.108-65.016-65.014v-231.168c0-35.908 29.108-65.018 65.015-65.018h231.168c35.907 0 65.016 29.11 65.016 65.018v231.168c0 35.905-29.109 65.014-65.016 65.014h-231.167z" />
<glyph unicode="&#xe92d;" glyph-name="view_list" horiz-adv-x="1138" d="M260.032 699.984c0-35.907-29.108-65.016-65.016-65.016s-65.015 29.109-65.015 65.016c0 35.907 29.108 65.016 65.015 65.016s65.016-29.109 65.016-65.016zM260.032 472.429c0-35.907-29.108-65.016-65.016-65.016s-65.015 29.109-65.015 65.016c0 35.907 29.108 65.016 65.015 65.016s65.016-29.109 65.016-65.016zM260.032 244.873c0-35.908-29.108-65.013-65.016-65.013s-65.015 29.104-65.015 65.013c0 35.908 29.108 65.018 65.015 65.018s65.016-29.11 65.016-65.018zM357.556 716.238c0 26.931 21.831 48.762 48.762 48.762h552.636c26.931 0 48.759-21.832 48.759-48.762s-21.828-48.762-48.759-48.762h-552.636c-26.931 0-48.762 21.832-48.762 48.762zM357.556 488.682c0 26.931 21.831 48.762 48.762 48.762h552.636c26.931 0 48.759-21.832 48.759-48.762s-21.828-48.762-48.759-48.762h-552.636c-26.931 0-48.762 21.832-48.762 48.762zM357.556 261.126c0 26.931 21.831 48.765 48.762 48.765h552.636c26.931 0 48.759-21.834 48.759-48.765s-21.828-48.759-48.759-48.759h-552.636c-26.931 0-48.762 21.828-48.762 48.759z" />
<glyph unicode="&#xe92e;" glyph-name="search1" d="M797.986 229.109l203.036-203.031-67.044-67.044-203.036 203.031c-73-58.402-165.583-93.343-266.276-93.343-235.52 0-426.667 191.147-426.667 426.667s191.147 426.667 426.667 426.667c235.522 0 426.668-191.147 426.668-426.667 0-100.693-34.941-193.275-93.349-266.28zM702.874 264.289c57.97 59.739 93.645 141.235 93.645 231.1 0 183.348-148.503 331.852-331.852 331.852s-331.852-148.504-331.852-331.852c0-183.348 148.503-331.851 331.852-331.851 89.866 0 171.357 35.675 231.101 93.645l7.105 7.105z" />
<glyph unicode="&#xe92f;" glyph-name="arrow_dropdown" d="M511.998 362.67l398.226 398.219 113.776-113.777-512.003-512.001-511.997 512.001 113.778 113.777 398.22-398.219z" />
<glyph unicode="&#xe930;" glyph-name="close1" d="M512.003 561.766l398.218 398.234 113.779-113.78-398.22-398.233 398.22-398.227-113.779-113.779-398.218 398.226-398.225-398.226-113.778 113.779 398.226 398.227-398.226 398.233 113.778 113.78 398.225-398.234z" />
<glyph unicode="&#xe931;" glyph-name="like" horiz-adv-x="1081" d="M540.516 798.044l-38.517 35.389c-104.744 96.24-265.488 92.829-366.304-10.511-101.018-103.547-104.966-269.614-11.568-377.987l416.303-427.402 416.311 427.403c93.389 108.353 89.537 274.138-11.611 378.028-100.671 103.409-261.7 106.572-366.12 10.497l-38.494-35.417zM998.645 406.425l-458.216-470.425-458.209 470.425c-113.725 130.513-109.474 330.937 12.753 456.224 122.366 125.429 318.198 129.654 445.515 12.676 126.949 116.805 323.125 112.927 445.402-12.676 122.288-125.603 126.487-325.711 12.754-456.224z" />
<glyph unicode="&#xe932;" glyph-name="arrow" horiz-adv-x="512" d="M233.373 937.627c12.497 12.497 32.758 12.497 45.254 0l203.647-203.647c12.497-12.497 12.497-32.758 0-45.255s-32.758-12.497-45.254 0l-181.020 181.020-181.020-181.020c-12.497-12.497-32.758-12.497-45.255 0s-12.497 32.758 0 45.255l203.647 203.647zM224-19.002v934.002h64v-934.002h-64z" />
<glyph unicode="&#xe933;" glyph-name="edit" d="M0 29.626h1024v-73.146h-1024v73.146zM855.629 651.375c29.254 29.258 29.254 73.143 0 102.4l-131.654 131.658c-29.261 29.257-73.146 29.257-102.403 0l-548.572-548.572v-234.058h234.058l548.572 548.572zM672.774 834.232l131.654-131.658-109.715-109.714-131.656 131.657 109.717 109.715zM146.143 175.949v131.654l365.715 365.715 131.656-131.657-365.713-365.712h-131.658z" />
<glyph unicode="&#xe934;" glyph-name="delete" d="M256 857.6v102.4h512v-102.4h256v-102.4h-102.4v-768c0-28.278-22.922-51.2-51.2-51.2h-716.8c-28.277 0-51.2 22.922-51.2 51.2v768h-102.4v102.4h256zM204.8 755.2v-716.8h614.4v716.8h-614.4zM358.4 601.6h102.4v-409.6h-102.4v409.6zM563.2 601.6h102.4v-409.6h-102.4v409.6z" />
<glyph unicode="&#xe935;" glyph-name="eye" horiz-adv-x="1252" d="M625.681 960c306.751 0 561.954-220.715 615.458-512-53.504-291.282-308.708-512-615.458-512-306.752 0-561.954 220.718-615.459 512 53.505 291.285 308.707 512 615.459 512zM625.681 49.778c240.959 0 447.147 167.708 499.337 398.222-52.19 230.512-258.378 398.222-499.337 398.222-240.961 0-447.148-167.71-499.341-398.222 52.192-230.514 258.379-398.222 499.341-398.222zM625.681 192c-141.384 0-255.999 114.614-255.999 256s114.615 256 255.999 256c141.38 0 256-114.615 256-256s-114.62-256-256-256zM625.681 305.778c78.546 0 142.222 63.676 142.222 142.222s-63.676 142.222-142.222 142.222c-78.544 0-142.222-63.676-142.222-142.222s63.678-142.222 142.222-142.222z" />
<glyph unicode="&#xe936;" glyph-name="star" horiz-adv-x="1069" d="M534.377 147.033l-314.034-175.781 70.136 352.982-264.218 244.34 357.378 42.373 150.738 326.792 150.733-326.792 357.376-42.373-264.214-244.34 70.135-352.982-314.030 175.781z" />
<glyph unicode="&#xe937;" horiz-adv-x="896" d="M405.8 937.090c28.859 16.962 64.68 16.797 93.381-0.432l343.301-206.069c27.531-16.525 44.374-46.281 44.374-78.391v-415.843c0-33.157-17.953-63.718-46.916-79.861l-343.274-191.334c-27.418-15.283-60.76-15.431-88.313-0.393l-351.584 191.883c-29.361 16.026-47.628 46.804-47.628 80.254v414.735c0 32.411 17.159 62.4 45.101 78.822l351.557 206.629z" />
<glyph unicode="&#xe938;" horiz-adv-x="896" d="M469.959 13.076c-10.966-6.113-24.304-6.171-35.324-0.157l-351.584 191.885c-11.745 6.409-19.051 18.721-19.051 32.101v414.735c0 12.965 6.864 24.96 18.040 31.53l351.556 206.628c11.544 6.785 25.872 6.719 37.354-0.173l343.3-206.069c11.012-6.61 17.75-18.512 17.75-31.356v-415.843c0-13.263-7.181-25.487-18.767-31.945l-343.274-191.334zM499.182 936.658c-28.701 17.228-64.523 17.394-93.381 0.432l-351.557-206.629c-27.942-16.422-45.101-46.411-45.101-78.822v-414.735c0-33.45 18.267-64.229 47.628-80.254l351.584-191.883c27.553-15.038 60.895-14.89 88.313 0.393l343.274 191.334c28.963 16.143 46.916 46.704 46.916 79.861v415.843c0 32.11-16.843 61.866-44.374 78.391l-343.301 206.069z" />
<glyph unicode="&#xe939;" horiz-adv-x="896" d="M487.073 57.832c-21.934-12.226-48.607-12.345-70.651-0.315l-285.141 155.622c-23.489 12.82-38.103 37.444-38.103 64.203v336.633c0 25.929 13.727 49.92 36.081 63.058l285.115 167.577c23.088 13.57 51.745 13.437 74.706-0.345l278.243-167.018c22.025-13.221 35.5-37.025 35.5-62.713v-337.741c0-26.527-14.363-50.973-37.533-63.888l-278.217-155.074zM498.491 859.944c-28.701 17.228-64.523 17.394-93.381 0.432l-285.115-167.577c-27.942-16.422-45.101-46.411-45.101-78.822v-336.633c0-33.45 18.267-64.229 47.628-80.254l285.142-155.621c27.553-15.038 60.895-14.89 88.313 0.393l278.217 155.072c28.963 16.144 46.916 46.704 46.916 79.861v337.741c0 32.11-16.845 61.866-44.374 78.391l-278.245 167.018z" />
<glyph unicode="&#xe93a;" glyph-name="error_info" d="M512-64c-282.77 0-512 229.233-512 512 0 282.77 229.23 512 512 512 282.767 0 512-229.23 512-512 0-282.767-229.233-512-512-512zM460.8 499.2v-307.2h102.4v307.2h-102.4zM460.8 704v-102.4h102.4v102.4h-102.4z" />
<glyph unicode="&#xe93b;" glyph-name="arrow_price" horiz-adv-x="878" d="M25.138 555.841l372.383 372.383c22.851 22.851 59.901 22.851 82.751 0l372.383-372.383c22.85-22.851 22.85-59.901 0-82.752s-59.899-22.851-82.754 0l-272.491 272.493v-794.963h-117.028v794.963l-272.493-272.493c-22.851-22.851-59.9-22.851-82.752 0s-22.851 59.901 0 82.752z" />
<glyph unicode="&#xe93c;" glyph-name="arrow_filter" d="M0.032 673.080l61.841 61.841 450.143-450.143 450.143 450.143 61.841-61.841-511.999-512-512.001 512z" />
<glyph unicode="&#xe93d;" glyph-name="separator1" horiz-adv-x="15360" d="M512 960h14336c282.77 0 512-229.23 512-512s-229.23-512-512-512h-14336c-282.77 0-512 229.23-512 512s229.23 512 512 512z" />
<glyph unicode="&#xe93e;" glyph-name="arrow_filled" d="M512 140.8l-512 614.4h1024l-512-614.4z" />
<glyph unicode="&#xe93e;" glyph-name="arrow_filled_after" d="M512 140.8l-512 614.4h1024l-512-614.4z" />
<glyph unicode="&#xe93f;" glyph-name="arrow_big" d="M576.056 714.98v-778.98h-128v778.98l-343.297-343.294-90.51 90.509 497.806 497.805 497.8-497.805-90.509-90.509-343.291 343.294z" />
</font>
</defs>
</svg>
