<svg width="17" height="21" viewBox="0 0 17 21" fill="none" xmlns="http://www.w3.org/2000/svg">
<path d="M16.5 21H14.5V19C14.5 17.3431 13.1569 16 11.5 16H5.5C3.84315 16 2.5 17.3431 2.5 19V21H0.5V19C0.5 16.2386 2.73858 14 5.5 14H11.5C14.2614 14 16.5 16.2386 16.5 19V21ZM8.5 12C5.18629 12 2.5 9.3137 2.5 6C2.5 2.68629 5.18629 0 8.5 0C11.8137 0 14.5 2.68629 14.5 6C14.5 9.3137 11.8137 12 8.5 12ZM8.5 10C10.7091 10 12.5 8.20914 12.5 6C12.5 3.79086 10.7091 2 8.5 2C6.29086 2 4.5 3.79086 4.5 6C4.5 8.20914 6.29086 10 8.5 10Z" fill="white"/>
</svg>
