<svg width="24" height="24" viewBox="0 0 24 24" fill="none" xmlns="http://www.w3.org/2000/svg">
<path d="M11.9983 2.99951C17.3904 2.99951 21.8764 6.87927 22.8169 11.9995C21.8764 17.1197 17.3904 20.9995 11.9983 20.9995C6.60617 20.9995 2.1202 17.1197 1.17969 11.9995C2.1202 6.87927 6.60617 2.99951 11.9983 2.99951ZM11.9983 18.9995C16.2339 18.9995 19.8583 16.0515 20.7757 11.9995C19.8583 7.94754 16.2339 4.99951 11.9983 4.99951C7.76265 4.99951 4.13827 7.94754 3.22083 11.9995C4.13827 16.0515 7.76265 18.9995 11.9983 18.9995ZM11.9983 16.4995C9.51303 16.4995 7.49831 14.4848 7.49831 11.9995C7.49831 9.51423 9.51303 7.49951 11.9983 7.49951C14.4835 7.49951 16.4983 9.51423 16.4983 11.9995C16.4983 14.4848 14.4835 16.4995 11.9983 16.4995ZM11.9983 14.4995C13.379 14.4995 14.4983 13.3802 14.4983 11.9995C14.4983 10.6188 13.379 9.49951 11.9983 9.49951C10.6176 9.49951 9.49831 10.6188 9.49831 11.9995C9.49831 13.3802 10.6176 14.4995 11.9983 14.4995Z" fill="#361D7E"/>
</svg>
