<svg width="46" height="45" viewBox="0 0 46 45" fill="none" xmlns="http://www.w3.org/2000/svg">
<g clip-path="url(#clip0_471_18569)">
<path d="M45.0605 23.0192C45.0605 21.4897 44.9365 19.952 44.6719 18.4473H23.4492V27.1116H35.6025C35.0982 29.906 33.4777 32.378 31.1049 33.9488V39.5707H38.3556C42.6133 35.6519 45.0605 29.8647 45.0605 23.0192Z" fill="#4285F4"/>
<path d="M23.4503 45.001C29.5187 45.001 34.6362 43.0085 38.3649 39.5693L31.1143 33.9474C29.097 35.3198 26.4928 36.0969 23.4586 36.0969C17.5887 36.0969 12.6116 32.1368 10.8258 26.8125H3.34375V32.608C7.16334 40.2058 14.9431 45.001 23.4503 45.001Z" fill="#34A853"/>
<path d="M10.8165 26.8126C9.87399 24.0182 9.87399 20.9923 10.8165 18.1979V12.4023H3.34266C0.151405 18.76 0.151405 26.2504 3.34266 32.6081L10.8165 26.8126Z" fill="#FBBC04"/>
<path d="M23.4503 8.90561C26.6581 8.85601 29.7584 10.0631 32.0816 12.2788L38.5054 5.85491C34.4378 2.03532 29.0391 -0.0646238 23.4503 0.00151625C14.9431 0.00151625 7.16333 4.79667 3.34375 12.4028L10.8176 18.1983C12.5951 12.8657 17.5804 8.90561 23.4503 8.90561Z" fill="#EA4335"/>
</g>
<defs>
<clipPath id="clip0_471_18569">
<rect width="45" height="45" fill="white" transform="translate(0.5)"/>
</clipPath>
</defs>
</svg>
