<svg width="22" height="22" viewBox="0 0 22 22" fill="none" xmlns="http://www.w3.org/2000/svg">
<path d="M7.68735 3.00008L10.294 0.393483C10.6845 0.00295344 11.3176 0.00295344 11.7082 0.393483L14.3148 3.00008H18.0011C18.5533 3.00008 19.0011 3.4478 19.0011 4.00008V7.68637L21.6077 10.293C21.9982 10.6835 21.9982 11.3167 21.6077 11.7072L19.0011 14.3138V18.0001C19.0011 18.5524 18.5533 19.0001 18.0011 19.0001H14.3148L11.7082 21.6067C11.3176 21.9972 10.6845 21.9972 10.294 21.6067L7.68735 19.0001H4.00106C3.44877 19.0001 3.00106 18.5524 3.00106 18.0001V14.3138L0.39446 11.7072C0.00393 11.3167 0.00393 10.6835 0.39446 10.293L3.00106 7.68637V4.00008C3.00106 3.4478 3.44877 3.00008 4.00106 3.00008H7.68735ZM5.00106 5.00008V8.5148L2.51578 11.0001L5.00106 13.4854V17.0001H8.51578L11.0011 19.4854L13.4863 17.0001H17.0011V13.4854L19.4863 11.0001L17.0011 8.5148V5.00008H13.4863L11.0011 2.5148L8.51578 5.00008H5.00106ZM11.0011 15.0001C8.79192 15.0001 7.00106 13.2092 7.00106 11.0001C7.00106 8.79094 8.79192 7.00008 11.0011 7.00008C13.2102 7.00008 15.0011 8.79094 15.0011 11.0001C15.0011 13.2092 13.2102 15.0001 11.0011 15.0001ZM11.0011 13.0001C12.1056 13.0001 13.0011 12.1047 13.0011 11.0001C13.0011 9.8955 12.1056 9.0001 11.0011 9.0001C9.8965 9.0001 9.0011 9.8955 9.0011 11.0001C9.0011 12.1047 9.8965 13.0001 11.0011 13.0001Z" fill="white"/>
</svg>
